<?xml version="1.0" encoding="utf-8"?>
<!-- Generator: Adobe Illustrator 27.5.0, SVG Export Plug-In . SVG Version: 6.00 Build 0)  -->
<svg version="1.1" id="Layer_1" xmlns="http://www.w3.org/2000/svg" xmlns:xlink="http://www.w3.org/1999/xlink" x="0px" y="0px"
	 viewBox="0 0 32 32" style="enable-background:new 0 0 32 32;" xml:space="preserve">
<style type="text/css">
	.st0{fill:url(#SVGID_1_);}
	.st1{fill:url(#SVGID_00000121963103515864642320000001784698500141723815_);}
	.st2{fill:url(#SVGID_00000057835832020193686550000006919372919627407250_);}
</style>
<g>
	<linearGradient id="SVGID_1_" gradientUnits="userSpaceOnUse" x1="2.1784" y1="19.3749" x2="25.8408" y2="19.3749">
		<stop  offset="0" style="stop-color:#70947A"/>
		<stop  offset="1" style="stop-color:#B2C298"/>
	</linearGradient>
	<path class="st0" d="M14.01,17.3c0,0,0,1.65,0,2.22C14,21.36,14,23.21,14.01,25.05c0,0.88-0.12,1.74-0.42,2.56
		c-0.39,1.07-1.09,1.92-2.09,2.51c-0.79,0.47-1.65,0.73-2.54,0.76c-0.83,0.03-1.66-0.08-2.45-0.41c-1.22-0.52-2.19-1.33-2.95-2.42
		c-0.74-1.07-1.21-2.24-1.34-3.53c-0.05-0.45-0.07-0.89,0-1.33c0.04-0.27,0.22-0.42,0.46-0.49c0.28-0.07,0.52,0.05,0.68,0.26
		c0.71,0.89,1.39,1.81,2.11,2.69c0.59,0.72,1.13,1.5,2.02,1.89c1.29,0.55,2.63,0.09,3.13-1.29c0.1-0.28,0.15-0.57,0.15-0.87
		c0.1-3.74,0.01-7.48,0.05-11.22c0.01-0.58,0.17-1.13,0.62-1.53c0.45-0.4,0.86-0.43,1.2,0.1c0.71,1.1,1.55,2.1,2.3,3.17
		c0.49,0.7,0.99,1.4,1.51,2.09c0.86,1.14,1.62,2.35,2.48,3.49c0.64,0.85,1.26,1.73,2.08,2.43c0.39,0.33,0.79,0.64,1.29,0.78
		c0.7,0.21,1.63-0.19,1.62-1.19c-0.01-4.9,0-9.8-0.01-14.7c0-0.62,0.33-0.97,0.9-0.92c0.09,0.01,0.18,0,0.27,0
		c0.5,0.02,0.76,0.29,0.76,0.78c0,2.89,0,5.77,0,8.66c0,2.06,0,4.11,0,6.17c0,0.64-0.2,1.23-0.53,1.76c-0.31,0.5-0.78,0.79-1.36,0.9
		c-1.29,0.25-2.42-0.1-3.5-0.77c-1.17-0.72-2.02-1.76-2.86-2.82C16.49,21.16,14.01,17.3,14.01,17.3z"/>
	
		<linearGradient id="SVGID_00000166635915347263908610000001323227972924239281_" gradientUnits="userSpaceOnUse" x1="5.9615" y1="12.734" x2="29.8216" y2="12.734">
		<stop  offset="0" style="stop-color:#B2C298"/>
		<stop  offset="1" style="stop-color:#70947A"/>
	</linearGradient>
	<path style="fill:url(#SVGID_00000166635915347263908610000001323227972924239281_);" d="M17.85,12.56c0,0-0.01-3.07-0.01-4.6
		c0-1.07,0.09-2.14,0.47-3.16c0.63-1.72,1.78-2.94,3.56-3.44c2.19-0.61,4.12-0.07,5.77,1.49c0.55,0.52,1.04,1.1,1.4,1.76
		c0.41,0.75,0.64,1.56,0.73,2.42c0.04,0.35,0.04,0.7,0.05,1.05c0,0.47-0.24,0.86-0.61,0.98c-0.38,0.12-0.87-0.03-1.14-0.36
		C27.63,8.17,27.3,7.57,26.92,7c-0.42-0.62-0.81-1.26-1.33-1.79c-0.75-0.78-1.69-1.09-2.76-0.83c-0.49,0.12-0.85,0.47-1.17,0.85
		c-0.53,0.63-0.69,1.38-0.7,2.17c-0.01,2.72,0.02,5.45-0.02,8.17c-0.01,0.65,0.08,1.33-0.19,1.96c-0.14,0.32-0.35,0.58-0.7,0.71
		c-0.22,0.08-0.41,0.03-0.58-0.13c-0.31-0.29-0.54-0.65-0.78-0.99c-0.72-1.03-1.43-2.05-2.14-3.09c-0.77-1.12-1.54-2.26-2.31-3.38
		c-0.67-0.97-1.33-1.93-2.07-2.85c-0.6-0.75-1.42-1.06-2.36-0.94C9.24,6.94,8.84,7.35,8.5,7.79C8.12,8.28,8,8.87,7.92,9.47
		c-0.12,0.97-0.05,2.9-0.05,2.9S7.8,22.76,7.81,23.73c0,0.33-0.26,0.44-0.48,0.52c-0.32,0.13-0.68,0.12-1-0.01
		c-0.23-0.1-0.35-0.28-0.35-0.56c0.01-3.2,0-6.39,0-9.59c0-1.46-0.06-2.91,0.03-4.37C6.09,8.3,6.55,7,7.63,6.01
		c0.65-0.6,1.45-0.89,2.35-0.88c1.33,0.02,2.44,0.55,3.39,1.42c0.91,0.83,1.58,1.86,2.27,2.86C16.28,10.34,17.85,12.56,17.85,12.56z
		"/>
</g>
<linearGradient id="SVGID_00000147206671518638640790000001792464754342875827_" gradientUnits="userSpaceOnUse" x1="131.9011" y1="0" x2="444.4286" y2="0">
	<stop  offset="0" style="stop-color:#B2C298"/>
	<stop  offset="1" style="stop-color:#70947A"/>
</linearGradient>
<rect x="131.9" y="-31.25" style="fill:url(#SVGID_00000147206671518638640790000001792464754342875827_);" width="312.53" height="62.51"/>
</svg>
